<svg height='300px' width='300px'  fill="#ababab" xmlns="http://www.w3.org/2000/svg" data-name="Layer 1" viewBox="0 0 32 32" x="0px" y="0px"><path d="M16,2.50005A13.5,13.5,0,1,0,29.5,16,13.5074,13.5074,0,0,0,16,2.50005Zm0,3A10.49989,10.49989,0,1,1,5.5,16,10.50407,10.50407,0,0,1,16,5.50005ZM20.59583,18.475A1.49962,1.49962,0,0,1,18.475,20.59567L16,18.12076l-2.475,2.47491A1.49962,1.49962,0,1,1,11.40417,18.475l2.475-2.475-2.475-2.47492A1.49971,1.49971,0,1,1,13.525,11.404L16,13.87906l2.475-2.475a1.49971,1.49971,0,0,1,2.12085,2.121l-2.475,2.47492Z" fill-rule="evenodd"></path></svg>