<svg height='300px' width='300px'  fill="#00f3df" xmlns="http://www.w3.org/2000/svg" xmlns:xlink="http://www.w3.org/1999/xlink" version="1.1" x="0px" y="0px" viewBox="0 0 100 100" style="enable-background:new 0 0 100 100;" xml:space="preserve"><g><path d="M29.2,95h36.5c2.2,0,4-1.8,4-4V11.7c0-2.2-1.8-4-4-4H29.2c-2.2,0-4,1.8-4,4V91C25.2,93.2,27,95,29.2,95z M47.5,91.2   c-1.6,0-2.9-1.3-2.9-2.9s1.3-2.9,2.9-2.9c1.6,0,2.9,1.3,2.9,2.9S49.1,91.2,47.5,91.2z M42.3,12h10.3c0.7,0,1.4,0.6,1.4,1.4   s-0.6,1.4-1.4,1.4H42.3c-0.7,0-1.4-0.6-1.4-1.4S41.6,12,42.3,12z M28.4,18.9h38.1v62.3H28.4V18.9z"></path><circle cx="43" cy="47" r="1.1"></circle><circle cx="46.6" cy="47" r="1.1"></circle><circle cx="50.2" cy="47" r="1.1"></circle><circle cx="43" cy="50.6" r="1.1"></circle><circle cx="46.6" cy="50.6" r="1.1"></circle><circle cx="50.2" cy="50.6" r="1.1"></circle><circle cx="43" cy="54.2" r="1.1"></circle><circle cx="46.6" cy="54.2" r="1.1"></circle><circle cx="50.2" cy="54.2" r="1.1"></circle><circle cx="46.6" cy="57.8" r="1.1"></circle><path d="M55.8,42.4c-6.1-1.7-12.6-1.7-18.7,0l-0.3,0.1c-1.6,0.5-3,1.5-3.8,3l-0.2,0.3c-0.3,0.6-0.3,1.3,0,1.9l1.4,1.7   c0.5,0.6,1.3,0.8,2,0.5l2.6-1c0.8-0.3,1.2-1.2,1.1-2l-0.4-2.1h0c4.5-1.5,9.4-1.4,13.9,0.1l0,0L53,46.8c-0.2,0.9,0.3,1.7,1.1,2   l2.5,0.9c0.7,0.3,1.6,0,2-0.6l1.1-1.6c0.2-0.5,0.2-1.1,0-1.6C59,44.1,57.6,42.9,55.8,42.4z"></path></g></svg>